<svg width="144" height="129" viewBox="0 0 144 129" fill="none" xmlns="http://www.w3.org/2000/svg">
<path d="M1.34518 116.56C0.541165 117.765 0.0794735 119.166 0.0093689 120.613C-0.0607357 122.06 0.263386 123.499 0.947144 124.776C1.6309 126.053 2.64863 127.121 3.89169 127.865C5.13476 128.608 6.55651 129.001 8.00519 129H136.005C137.443 129.001 138.853 128.614 140.09 127.881C141.326 127.147 142.342 126.094 143.03 124.833C143.719 123.571 144.055 122.147 144.003 120.711C143.951 119.274 143.513 117.879 142.735 116.67L106.735 60.67C106.011 59.5429 105.015 58.6158 103.839 57.9737C102.663 57.3316 101.345 56.9951 100.005 56.9951C98.6654 56.9951 97.3471 57.3316 96.1712 57.9737C94.9953 58.6158 93.9995 59.5429 93.2752 60.67L83.5152 75.85L62.6652 44.56C61.9349 43.4626 60.9448 42.5628 59.7829 41.9403C58.621 41.3179 57.3233 40.9922 56.0052 40.9922C54.6871 40.9922 53.3894 41.3179 52.2275 41.9403C51.0656 42.5628 50.0755 43.4626 49.3452 44.56L1.34518 116.56Z" fill="white"/>
<circle cx="87.5" cy="20.5" r="20.5" fill="white"/>
</svg>
