<svg width="18" height="19" viewBox="0 0 18 19" fill="none" xmlns="http://www.w3.org/2000/svg">
<path d="M8.03 0.35553C8.30108 0.125977 8.64478 0 9 0C9.35522 0 9.69892 0.125977 9.97 0.35553L17.47 6.71853C17.6361 6.85933 17.7695 7.03459 17.861 7.23214C17.9526 7.42969 18 7.64481 18 7.86253V17.2655C18 17.6634 17.842 18.0449 17.5607 18.3262C17.2794 18.6075 16.8978 18.7655 16.5 18.7655H10.75C10.5511 18.7655 10.3603 18.6865 10.2197 18.5459C10.079 18.4052 10 18.2144 10 18.0155V11.7655H8V18.0155C8 18.2144 7.92098 18.4052 7.78033 18.5459C7.63968 18.6865 7.44891 18.7655 7.25 18.7655H1.5C1.10218 18.7655 0.720644 18.6075 0.43934 18.3262C0.158035 18.0449 0 17.6634 0 17.2655V7.86253C0 7.42253 0.194 7.00353 0.53 6.71853L8.03 0.35553ZM9 1.49953L1.5 7.86253V17.2655H6.5V11.0155C6.5 10.8166 6.57902 10.6259 6.71967 10.4852C6.86032 10.3445 7.05109 10.2655 7.25 10.2655H10.75C10.9489 10.2655 11.1397 10.3445 11.2803 10.4852C11.421 10.6259 11.5 10.8166 11.5 11.0155V17.2655H16.5V7.86253L9 1.49953Z" fill="white"/>
</svg>
